<?xml version="1.0" standalone="no"?>
<!DOCTYPE svg PUBLIC "-//W3C//DTD SVG 20010904//EN"
 "http://www.w3.org/TR/2001/REC-SVG-20010904/DTD/svg10.dtd">
<svg version="1.0" xmlns="http://www.w3.org/2000/svg"
 width="500.000000pt" height="500.000000pt" viewBox="0 0 500.000000 500.000000"
 preserveAspectRatio="xMidYMid meet">

<g transform="translate(0.000000,500.000000) scale(0.100000,-0.100000)"
fill="#000000" stroke="none">
<path d="M3654 3141 c-17 -10 -37 -34 -45 -52 -14 -34 -19 -164 -9 -223 5 -29
3 -30 -66 -51 -130 -40 -184 -87 -184 -161 0 -36 6 -51 34 -82 48 -52 101 -81
118 -63 11 11 7 17 -17 35 -116 83 -123 136 -25 194 34 20 148 57 155 50 2 -1
15 -36 29 -76 l25 -72 -33 -68 c-75 -151 -102 -318 -63 -390 35 -64 104 -73
198 -26 56 28 77 50 61 66 -8 8 -27 3 -71 -20 -57 -31 -104 -40 -127 -24 -54
36 -42 188 27 341 l30 66 45 -85 c94 -176 228 -331 328 -380 113 -54 196 12
196 156 0 124 -97 434 -136 434 -26 0 -24 -22 11 -110 56 -139 78 -239 73
-332 -3 -73 -6 -82 -32 -104 -19 -17 -35 -23 -49 -18 -119 35 -255 187 -369
410 l-42 81 47 75 c26 42 54 81 62 88 12 10 43 11 128 7 235 -14 448 -89 494
-174 24 -44 8 -75 -62 -114 -85 -48 -63 -84 24 -39 93 47 119 132 62 201 -72
87 -270 152 -535 175 l-69 6 77 77 c125 126 226 174 276 133 23 -19 25 -28 26
-104 0 -75 2 -83 20 -83 15 0 20 9 26 45 12 77 -1 131 -39 169 -31 31 -37 33
-87 29 -38 -3 -71 -15 -111 -39 -57 -34 -168 -134 -219 -198 -26 -32 -32 -35
-104 -41 -42 -4 -79 -5 -82 -3 -2 2 -6 50 -8 106 -4 93 -2 105 18 130 29 37
72 36 133 -3 52 -33 77 -38 77 -16 0 30 -112 96 -162 96 -13 0 -37 -9 -54 -19z
m110 -343 c-4 -7 -21 -33 -38 -57 l-30 -45 -16 50 -17 49 26 6 c48 12 83 10
75 -3z"/>
<path d="M2005 2866 c-62 -28 -128 -101 -149 -163 -69 -203 78 -405 284 -390
150 10 261 129 262 282 1 136 -70 242 -191 283 -57 20 -150 15 -206 -12z m185
-114 c97 -52 101 -225 8 -295 -37 -28 -119 -27 -157 0 -39 29 -61 80 -61 143
0 131 106 207 210 152z"/>
<path d="M845 2609 c-61 -150 -111 -276 -113 -280 -2 -5 28 -9 66 -9 l69 0 19
53 19 52 111 3 110 3 18 -56 17 -55 70 0 c39 0 69 4 67 9 -1 5 -52 131 -113
280 l-109 271 -61 0 -61 0 -109 -271z m203 18 c12 -33 22 -63 22 -68 0 -5 -25
-9 -55 -9 -30 0 -55 4 -55 10 0 22 53 141 60 133 4 -4 16 -34 28 -66z"/>
<path d="M1360 2825 l0 -55 65 0 65 0 0 -225 0 -225 65 0 65 0 0 225 0 225 65
0 65 0 0 55 0 55 -195 0 -195 0 0 -55z"/>
<path d="M2550 2870 c0 -16 -39 -447 -45 -502 l-6 -48 64 0 64 0 6 58 c4 31
10 103 13 160 4 56 10 102 13 102 3 0 31 -71 61 -158 l55 -157 39 0 38 0 57
164 c64 186 63 186 76 -24 9 -152 5 -145 76 -145 l59 0 -1 43 c0 23 -10 148
-22 277 l-22 235 -70 3 -70 2 -59 -155 c-32 -85 -60 -155 -63 -155 -5 0 -13
19 -77 188 l-48 122 -69 0 c-41 0 -69 -4 -69 -10z"/>
<path d="M3900 2688 c-30 -11 -40 -25 -40 -60 0 -35 32 -68 65 -68 14 0 34 9
45 20 51 51 -3 133 -70 108z"/>
</g>
</svg>
